# xmcd
#
# Track frame offsets: 
#        150
#        19303
#        34599
#        52187
#        64971
#        94169
#        105212
#        119508
#        132509
#        157533
#        167963
#        189679
#        203070
#        216842
#        241938
#        256475
#        275120
#        288989
#        298926
#        313599
#
# Disc length: 4560 seconds
#
# Revision: 1
# Processed by: cddbd v1.5.2PL0 Copyright (c) Steve Scherf et al.
# Submitted via: ExactAudioCopy v0.99pb5
#
DISCID=3511ce14
DTITLE=Al Green - Simply Beautiful - The Love Songs
DYEAR=1900
DGENRE=
TTITLE0=Simply Beautiful
TTITLE1=Oh Pretty Woman
TTITLE2=Light My Fire
TTITLE3=Tired Of Being Alone
TTITLE4=For The Good Times
TTITLE5=The Letter
TTITLE6=Livin' For You
TTITLE7=My Girl
TTITLE8=Funny How Time Slips Away
TTITLE9=I Want To Hold Your Hand
TTITLE10=Belle
TTITLE11=Sha-La-La (Make Me Happy)
TTITLE12=L-O-V-E (Love)
TTITLE13=Unchained Melody
TTITLE14=I'm Still In Love With You
TTITLE15=To Sir With Love
TTITLE16=One Woman
TTITLE17=I Say A Little Prayer
TTITLE18=Let's Stay Together
TTITLE19=How Can You Mend A Broken Heart
EXTD=
EXTT0=
EXTT1=
EXTT2=
EXTT3=
EXTT4=
EXTT5=
EXTT6=
EXTT7=
EXTT8=
EXTT9=
EXTT10=
EXTT11=
EXTT12=
EXTT13=
EXTT14=
EXTT15=
EXTT16=
EXTT17=
EXTT18=
EXTT19=
PLAYORDER=
